<?plantuml 1.2026.1?><svg xmlns="http://www.w3.org/2000/svg" xmlns:xlink="http://www.w3.org/1999/xlink" contentStyleType="text/css" data-diagram-type="CLASS" height="235px" preserveAspectRatio="none" style="width:136px;height:235px;background:#FFFFFF;" version="1.1" viewBox="0 0 136 235" width="136px" zoomAndPan="magnify"><defs/><g><!--class ComponentA--><g class="entity" data-qualified-name="ComponentA" data-source-line="2" id="ent0002"><rect fill="#F1F1F1" height="80.5938" rx="2.5" ry="2.5" style="stroke:#181818;stroke-width:0.5;" width="122.8564" x="7.01" y="7"/><ellipse cx="22.01" cy="23" fill="#ADD1B2" rx="11" ry="11" style="stroke:#181818;stroke-width:1;"/><path d="M24.9787,28.6406 Q24.4006,28.9375 23.76,29.0781 Q23.1194,29.2344 22.4162,29.2344 Q19.9162,29.2344 18.5881,27.5938 Q17.2756,25.9375 17.2756,22.8125 Q17.2756,19.6875 18.5881,18.0313 Q19.9162,16.375 22.4162,16.375 Q23.1194,16.375 23.76,16.5313 Q24.4162,16.6875 24.9787,16.9844 L24.9787,19.7031 Q24.3537,19.125 23.76,18.8594 Q23.1662,18.5781 22.5412,18.5781 Q21.1975,18.5781 20.51,19.6563 Q19.8225,20.7188 19.8225,22.8125 Q19.8225,24.9063 20.51,25.9844 Q21.1975,27.0469 22.5412,27.0469 Q23.1662,27.0469 23.76,26.7813 Q24.3537,26.5 24.9787,25.9219 L24.9787,28.6406 Z " fill="#000000"/><text fill="#000000" font-family="sans-serif" font-size="14" lengthAdjust="spacing" textLength="90.8564" x="36.01" y="27.8467">ComponentA</text><line style="stroke:#181818;stroke-width:0.5;" x1="8.01" x2="128.8664" y1="39" y2="39"/><line style="stroke:#181818;stroke-width:0.5;" x1="8.01" x2="128.8664" y1="47" y2="47"/><g data-visibility-modifier="PUBLIC_METHOD"><ellipse cx="18.01" cy="60.6484" fill="#84BE84" rx="3" ry="3" style="stroke:#038048;stroke-width:1;"/></g><text fill="#000000" font-family="sans-serif" font-size="14" lengthAdjust="spacing" textLength="73.8965" x="27.01" y="63.9951">method1()</text><g data-visibility-modifier="PUBLIC_METHOD"><ellipse cx="18.01" cy="76.9453" fill="#84BE84" rx="3" ry="3" style="stroke:#038048;stroke-width:1;"/></g><text fill="#000000" font-family="sans-serif" font-size="14" lengthAdjust="spacing" textLength="73.8965" x="27.01" y="80.292">method2()</text></g><!--class ComponentB--><g class="entity" data-qualified-name="ComponentB" data-source-line="7" id="ent0003"><rect fill="#F1F1F1" height="64.2969" rx="2.5" ry="2.5" style="stroke:#181818;stroke-width:0.5;" width="122.8838" x="7" y="164.59"/><ellipse cx="22" cy="180.59" fill="#ADD1B2" rx="11" ry="11" style="stroke:#181818;stroke-width:1;"/><path d="M24.9688,186.2306 Q24.3906,186.5275 23.75,186.6681 Q23.1094,186.8244 22.4063,186.8244 Q19.9063,186.8244 18.5781,185.1837 Q17.2656,183.5275 17.2656,180.4025 Q17.2656,177.2775 18.5781,175.6212 Q19.9063,173.965 22.4063,173.965 Q23.1094,173.965 23.75,174.1212 Q24.4063,174.2775 24.9688,174.5744 L24.9688,177.2931 Q24.3438,176.715 23.75,176.4494 Q23.1563,176.1681 22.5313,176.1681 Q21.1875,176.1681 20.5,177.2462 Q19.8125,178.3087 19.8125,180.4025 Q19.8125,182.4962 20.5,183.5744 Q21.1875,184.6369 22.5313,184.6369 Q23.1563,184.6369 23.75,184.3712 Q24.3438,184.09 24.9688,183.5119 L24.9688,186.2306 Z " fill="#000000"/><text fill="#000000" font-family="sans-serif" font-size="14" lengthAdjust="spacing" textLength="90.8838" x="36" y="185.4367">ComponentB</text><line style="stroke:#181818;stroke-width:0.5;" x1="8" x2="128.8838" y1="196.59" y2="196.59"/><line style="stroke:#181818;stroke-width:0.5;" x1="8" x2="128.8838" y1="204.59" y2="204.59"/><g data-visibility-modifier="PUBLIC_METHOD"><ellipse cx="18" cy="218.2384" fill="#84BE84" rx="3" ry="3" style="stroke:#038048;stroke-width:1;"/></g><text fill="#000000" font-family="sans-serif" font-size="14" lengthAdjust="spacing" textLength="73.8965" x="27" y="221.5851">method1()</text></g><!--link ComponentA to ComponentB--><g class="link" data-entity-1="ent0002" data-entity-2="ent0003" data-link-type="dependency" data-source-line="11" id="lnk4"><path codeLine="11" d="M68.44,87.81 C68.44,111.86 68.44,136.16 68.44,158.53" fill="none" id="ComponentA-to-ComponentB" style="stroke:#181818;stroke-width:1;"/><polygon fill="#181818" points="68.44,164.53,72.44,155.53,68.44,159.53,64.44,155.53,68.44,164.53" style="stroke:#181818;stroke-width:1;"/><text fill="#000000" font-family="sans-serif" font-size="13" lengthAdjust="spacing" textLength="29.7832" x="69.44" y="130.6569">uses</text></g><?plantuml-src Kqn9JSlCIrK8SdKESVHpzt5LICv9B2xcGl2TytCBylDIyqeS5Qgvj7DJIpBoKmmrD65C8o2pbWkRUYTKzK15I4RfwjeXgxHIA2rEBGO0?></g></svg>